#!OML:ASF E:\emotionWalksFemale\Project 1\Capture day 1\Session 1\Female1.ASF
:FULLY-SPECIFIED
:DEGREES
1645
root 8.50932 14.9918 -37.4849 -4.2818 9.24333 -3.93739
lowerback 5.17896 1.12496 1.30007
upperback -3.5346 1.66899 0.904528
thorax -6.58107 0.78734 0.0342766
lowerneck -9.09065 -6.47817 -7.36966
upperneck 31.5802 -12.7269 14.914
head 13.7257 -4.73859 5.36336
rclavicle 2.5345e-014 -7.95139e-016
rhumerus -44.9281 22.168 -101.213
rradius 31.4646
rwrist 17.2166
rhand -6.74074 -50.3857
rfingers 7.12502
rthumb 19.1201 -79.4659
lclavicle 2.5345e-014 -7.95139e-016
lhumerus -42.8432 -0.331348 85.6108
lradius 34.6367
lwrist -16.1507
lhand -6.00263 -33.6178
lfingers 7.12502
lthumb 19.8298 -4.60934
rfemur 3.93185 11.5336 38.3175
rtibia 23.3272
rfoot -22.4773 -30.5368
rtoes 9.89763
lfemur -25.0315 -11.613 -15.5541
ltibia 58.0379
lfoot -18.0525 -3.97395
ltoes -22.7626
1646
root 8.50991 14.9904 -37.4856 -4.4331 9.23534 -3.99873
lowerback 5.17462 1.14936 1.34548
upperback -3.38925 1.70629 0.970841
thorax -6.42517 0.806686 0.0755706
lowerneck -9.02313 -6.51011 -7.43949
upperneck 31.5378 -12.7821 14.9994
head 13.7144 -4.76562 5.40251
rclavicle -2.127e-014 5.76476e-015
rhumerus -44.8105 22.1229 -101.03
rradius 31.4266
rwrist 17.3506
rhand -7.05878 -50.6263
rfingers 7.12502
rthumb 18.8143 -79.7365
lclavicle -2.127e-014 5.76476e-015
lhumerus -42.7831 -0.183981 85.6858
lradius 34.5599
lwrist -16.237
lhand -6.5301 -33.9577
lfingers 7.12502
lthumb 19.3227 -4.8977
rfemur 4.11172 11.4285 38.3917
rtibia 23.2369
rfoot -22.3165 -30.5583
rtoes 9.55076
lfemur -25.1165 -11.6673 -15.5324
ltibia 58.5186
lfoot -18.1809 -3.91391
ltoes -19.1673
1647
root 8.50951 14.9968 -37.4768 -4.42137 9.1883 -4.01074
lowerback 5.1408 1.14935 1.37596
upperback -3.40012 1.71114 1.01932
thorax -6.4179 0.809005 0.109125
lowerneck -8.90532 -6.48851 -7.4766
upperneck 31.6196 -12.7607 15.0086
head 13.7243 -4.76245 5.42494
rclavicle 1.59525e-014 1.15295e-014
rhumerus -44.8886 22.1246 -100.959
rradius 31.4405
rwrist 17.242
rhand -6.36098 -51.211
rfingers 7.12502
rthumb 19.4853 -80.2547
lclavicle 1.59525e-014 1.15295e-014
lhumerus -42.9167 0.2212 85.5956
lradius 34.4008
lwrist -16.5358
lhand -6.3773 -34.4872
lfingers 7.12502
lthumb 19.4696 -5.44203
rfemur 4.18334 11.4219 38.4003
rtibia 23.1367
rfoot -22.2511 -30.5194
rtoes 9.85088
lfemur -25.5574 -11.5416 -15.5949
ltibia 58.8093
lfoot -18.521 -2.97921
ltoes -22.0829
1648
root 8.50971 14.9965 -37.4705 -4.47248 9.14292 -4.03304
lowerback 5.1893 1.20444 1.4472
upperback -3.39133 1.78927 0.98318
thorax -6.43274 0.843327 0.0223363
lowerneck -8.79784 -6.49456 -7.34849
upperneck 31.652 -12.831 15.0866
head 13.7248 -4.77207 5.42865
rclavicle 2.73329e-014 1.11319e-014
rhumerus -44.8984 21.9972 -100.998
rradius 31.3703
rwrist 16.9264
rhand -4.81595 -52.5142
rfingers 7.12502
rthumb 20.9702 -81.4006
lclavicle 2.73329e-014 1.11319e-014
lhumerus -42.9902 0.168879 85.6017
lradius 34.3715
lwrist -16.459
lhand -5.86312 -34.1329
lfingers 7.12502
lthumb 19.9639 -5.13837
rfemur 4.28465 11.3556 38.4182
rtibia 23.0901
rfoot -22.371 -30.3872
rtoes 10.6088
lfemur -25.8256 -11.4562 -15.656
ltibia 59.0674
lfoot -18.5605 -2.76014
ltoes -21.1408
1649
root 8.50941 14.998 -37.4676 -4.45964 9.1304 -4.04152
lowerback 5.17426 1.20289 1.45027
upperback -3.37556 1.78839 1.01033
thorax -6.40823 0.84367 0.0495084
lowerneck -8.70202 -6.46411 -7.4091
upperneck 31.6748 -12.8217 15.2177
head 13.7294 -4.76422 5.5013
rclavicle -1.69215e-014 1.19271e-015
rhumerus -44.8625 22.1048 -100.997
rradius 31.2706
rwrist 16.6588
rhand -4.5936 -52.7762
rfingers 7.12502
rthumb 21.1838 -81.6387
lclavicle -1.69215e-014 1.19271e-015
lhumerus -43.0801 0.148019 85.694
lradius 34.3983
lwrist -16.2219
lhand -5.86844 -34.1667
lfingers 7.12502
lthumb 19.9588 -5.17168
rfemur 4.33921 11.3443 38.4204
rtibia 22.9683
rfoot -22.4281 -30.2743
rtoes 11.3524
lfemur -26.0411 -11.5828 -15.6219
ltibia 59.2709
lfoot -18.5934 -2.99709
ltoes -14.8995
1650
root 8.5093 14.9898 -37.4627 -4.43949 9.15451 -4.02426
lowerback 5.11547 1.18415 1.39689
upperback -3.32629 1.75914 1.05153
thorax -6.32537 0.833351 0.127238
lowerneck -8.71238 -6.46575 -7.44129
upperneck 31.7319 -12.8332 15.2378
head 13.7637 -4.76846 5.51745
rclavicle -8.74653e-015 -1.74931e-014
rhumerus -44.7103 22.028 -100.763
rradius 31.2534
rwrist 16.662
rhand -5.70893 -51.853
rfingers 7.12502
rthumb 20.1121 -80.832
lclavicle -8.74653e-015 -1.74931e-014
lhumerus -43.1662 0.121132 85.8185
lradius 34.4406
lwrist -16.0558
lhand -5.47675 -33.798
lfingers 7.12502
lthumb 20.3353 -4.84264
rfemur 4.40006 11.3578 38.4323
rtibia 22.8697
rfoot -22.4089 -30.2524
rtoes 11.1555
lfemur -26.1917 -11.4607 -15.7242
ltibia 59.3637
lfoot -18.8298 -1.93801
ltoes -17.9442
1651
root 8.50799 14.9987 -37.4539 -4.42219 9.07454 -4.00032
lowerback 5.15474 1.19586 1.34256
upperback -3.32165 1.77257 1.07282
thorax -6.34528 0.842691 0.177576
lowerneck -8.73863 -6.48827 -7.37678
upperneck 31.8524 -12.8724 15.1514
head 13.8171 -4.78221 5.46949
rclavicle -1.92324e-014 -3.77691e-015
rhumerus -44.7294 21.9341 -100.669
rradius 31.2144
rwrist 17.1656
rhand -6.44873 -50.9185
rfingers 7.12502
rthumb 19.4009 -79.9706
lclavicle -1.92324e-014 -3.77691e-015
lhumerus -43.2784 0.0974653 85.888
lradius 34.4124
lwrist -15.9398
lhand -5.35204 -33.8815
lfingers 7.12502
lthumb 20.4551 -4.93899
rfemur 4.50311 11.4107 38.4321
rtibia 22.7163
rfoot -22.2404 -30.2852
rtoes 10.3626
lfemur -26.5109 -11.3316 -15.7703
ltibia 59.3462
lfoot -18.9282 -1.78026
ltoes -15.9619
1652
root 8.50506 14.9996 -37.446 -4.51141 9.04991 -3.98032
lowerback 5.30891 1.19745 1.30981
upperback -3.30747 1.77389 1.05216
thorax -6.41928 0.843635 0.17092
lowerneck -8.66967 -6.51039 -7.28643
upperneck 31.9282 -12.9376 15.1419
head 13.8391 -4.80166 5.44502
rclavicle -7.60351e-015 -1.92821e-014
rhumerus -44.7692 21.8085 -100.704
rradius 31.2178
rwrist 17.1314
rhand -6.55822 -50.9731
rfingers 7.12502
rthumb 19.2957 -80.0358
lclavicle -7.60351e-015 -1.92821e-014
lhumerus -43.4042 -0.0160396 85.9224
lradius 34.4278
lwrist -15.6729
lhand -5.23968 -33.4567
lfingers 7.12502
lthumb 20.5631 -4.52583
rfemur 4.65954 11.386 38.4691
rtibia 22.6609
rfoot -22.1171 -30.3449
rtoes 10.5584
lfemur -26.777 -11.0214 -15.9518
ltibia 59.1901
lfoot -19.1021 -0.454145
ltoes -23.9982
1653
root 8.50278 15.0023 -37.4407 -4.51542 9.03993 -3.97265
lowerback 5.46097 1.23713 1.29203
upperback -3.35438 1.82777 1.01899
thorax -6.55574 0.869017 0.136454
lowerneck -8.52912 -6.53504 -7.25416
upperneck 31.9452 -13.0391 15.292
head 13.8453 -4.83101 5.49198
rclavicle -3.72721e-015 -2.16675e-014
rhumerus -44.8413 21.5378 -100.698
rradius 31.2599
rwrist 16.9535
rhand -6.89798 -50.8657
rfingers 7.12502
rthumb 18.9689 -79.9608
lclavicle -3.72721e-015 -2.16675e-014
lhumerus -43.5342 -0.115927 85.9191
lradius 34.2779
lwrist -15.8323
lhand -5.72756 -33.8318
lfingers 7.12502
lthumb 20.0942 -4.85096
rfemur 4.6829 11.3268 38.4663
rtibia 22.663
rfoot -22.0193 -30.2822
rtoes 11.1126
lfemur -27.0531 -10.9346 -16.004
ltibia 59.0424
lfoot -19.3922 0.072319
ltoes -25.3589
1654
root 8.50147 14.9979 -37.4365 -4.41335 9.08983 -3.93918
lowerback 5.4097 1.2513 1.25162
upperback -3.37385 1.84039 0.981178
thorax -6.54665 0.876177 0.119264
lowerneck -8.29009 -6.55345 -7.28451
upperneck 31.8703 -13.1303 15.5204
head 13.7987 -4.86323 5.58225
rclavicle 1.39646e-014 6.75868e-015
rhumerus -44.8188 21.1683 -100.566
rradius 31.3138
rwrist 17.034
rhand -7.0006 -50.6803
rfingers 7.12502
rthumb 18.8702 -79.785
lclavicle 1.39646e-014 6.75868e-015
lhumerus -43.6192 -0.228803 85.936
lradius 34.2633
lwrist -15.8159
lhand -5.55115 -34.2156
lfingers 7.12502
lthumb 20.2638 -5.25262
rfemur 4.57926 11.2986 38.4195
rtibia 22.6821
rfoot -21.9295 -30.2858
rtoes 11.1582
lfemur -27.3163 -10.9773 -16.0438
ltibia 58.8022
lfoot -19.3141 0.120032
ltoes -21.5002
